<?xml version="1.0" encoding="UTF-8"?>
<svg width="18px" height="18px" viewBox="0 0 18 18" version="1.1" xmlns="http://www.w3.org/2000/svg" xmlns:xlink="http://www.w3.org/1999/xlink">
    <!-- Generator: Sketch 49.3 (51167) - http://www.bohemiancoding.com/sketch -->
    <title>arrow</title>
    <desc>Created with Sketch.</desc>
    <defs></defs>
    <g id="Page-1" stroke="none" stroke-width="1" fill="none" fill-rule="evenodd">
        <g id="Header-#9" transform="translate(-589.000000, -505.000000)">
            <g id="arrow" transform="translate(590.000000, 506.000000)">
                <g id="2" transform="translate(8.000000, 8.000000) scale(-1, -1) translate(-8.000000, -8.000000) ">
                    <circle id="Oval-4" stroke="#979797" cx="8" cy="8" r="8"></circle>
                    <path d="M10.1350279,7.47556953 C10.1222119,7.48773525 10.1035705,7.48434017 10.0892982,7.49339373 L6.61704757,10.5877309 C6.5084032,10.6929786 6.33276633,10.6929786 6.22441324,10.5877309 C6.11606014,10.4824833 6.11606014,10.3115973 6.22441324,10.2063497 L9.51607537,7.27356197 L6.22412196,4.34077423 C6.11576887,4.23552659 6.11576887,4.06464063 6.22412196,3.95967592 C6.33247506,3.8547112 6.50811193,3.8547112 6.61646502,3.95967592 L10.0881331,7.05259851 C10.1026967,7.06221791 10.1222119,7.05882283 10.1350279,7.0715544 C10.1926997,7.12729038 10.2174578,7.20141641 10.2139625,7.27469366 C10.2168752,7.34683922 10.1915346,7.42011648 10.1350279,7.47556953 Z" id="Shape" fill="#979797" transform="translate(8.178571, 7.273810) rotate(270.000000) translate(-8.178571, -7.273810) "></path>
                </g>
            </g>
        </g>
    </g>
</svg>